<svg width="98" height="22" viewBox="0 0 98 22" fill="none" xmlns="http://www.w3.org/2000/svg">
<g id="Logo" clip-path="url(#clip0_23_838)">
<path id="Vector" fill-rule="evenodd" clip-rule="evenodd" d="M8.35227 15.4C7.61389 15.4 6.90574 15.1103 6.38362 14.5945C5.86151 14.0788 5.56818 13.3793 5.56818 12.65V0H0V12.65C0 17.2062 3.73959 20.9 8.35227 20.9H14.4773V15.4H8.35227ZM25.0568 5.5C24.3987 5.5 23.7471 5.62804 23.1391 5.8768C22.531 6.12556 21.9786 6.49017 21.5133 6.94982C21.0479 7.40947 20.6788 7.95516 20.4269 8.55572C20.1751 9.15628 20.0455 9.79996 20.0455 10.45C20.0455 11.1 20.1751 11.7437 20.4269 12.3443C20.6788 12.9448 21.0479 13.4905 21.5133 13.9502C21.9786 14.4098 22.531 14.7744 23.1391 15.0232C23.7471 15.272 24.3987 15.4 25.0568 15.4C26.3859 15.4 27.6606 14.8785 28.6004 13.9502C29.5402 13.0219 30.0682 11.7628 30.0682 10.45C30.0682 9.13718 29.5402 7.87813 28.6004 6.94982C27.6606 6.02152 26.3859 5.5 25.0568 5.5ZM14.4773 10.45C14.4773 4.67885 19.2141 0 25.0568 0C30.8995 0 35.6364 4.67885 35.6364 10.45C35.6364 16.2211 30.8995 20.9 25.0568 20.9C19.2141 20.9 14.4773 16.2211 14.4773 10.45ZM85.1932 5.5C83.8641 5.5 82.5894 6.02152 81.6496 6.94982C80.7098 7.87813 80.1818 9.13718 80.1818 10.45C80.1818 11.7628 80.7098 13.0219 81.6496 13.9502C82.5894 14.8785 83.8641 15.4 85.1932 15.4C86.5223 15.4 87.7969 14.8785 88.7368 13.9502C89.6766 13.0219 90.2045 11.7628 90.2045 10.45C90.2045 9.13718 89.6766 7.87813 88.7368 6.94982C87.7969 6.02152 86.5223 5.5 85.1932 5.5ZM74.6136 10.45C74.6136 4.67885 79.3505 0 85.1932 0C91.0359 0 95.7727 4.67885 95.7727 10.45C95.7727 16.2211 91.0359 20.9 85.1932 20.9C79.3505 20.9 74.6136 16.2211 74.6136 10.45ZM47.3295 0C41.4869 0 36.75 4.67885 36.75 10.45C36.75 16.2211 41.4869 20.9 47.3295 20.9H62.9205C64.0168 20.9 65.0742 20.735 66.0687 20.4292L69.0455 22L72.2572 16.0578C73.073 14.5451 73.4998 12.8575 73.5 11.1435V10.45C73.5 4.67885 68.7631 0 62.9205 0H47.3295ZM67.9318 10.45C67.9318 9.13718 67.4038 7.87813 66.464 6.94982C65.5242 6.02152 64.2495 5.5 62.9205 5.5H47.3295C46.6714 5.5 46.0198 5.62804 45.4118 5.8768C44.8038 6.12556 44.2513 6.49017 43.786 6.94982C43.3206 7.40947 42.9515 7.95516 42.6996 8.55572C42.4478 9.15628 42.3182 9.79996 42.3182 10.45C42.3182 11.1 42.4478 11.7437 42.6996 12.3443C42.9515 12.9448 43.3206 13.4905 43.786 13.9502C44.2513 14.4098 44.8038 14.7744 45.4118 15.0232C46.0198 15.272 46.6714 15.4 47.3295 15.4H62.9205C64.2428 15.4 65.5116 14.8838 66.4503 13.9638C67.389 13.0438 67.9215 11.7946 67.9318 10.4885V10.45Z" fill="#283841"/>
<path id="Vector_2" d="M97.9999 1.375C97.9999 1.73967 97.8532 2.08941 97.5922 2.34727C97.3311 2.60513 96.9771 2.75 96.6079 2.75C96.2387 2.75 95.8846 2.60513 95.6235 2.34727C95.3625 2.08941 95.2158 1.73967 95.2158 1.375C95.2158 1.01033 95.3625 0.660591 95.6235 0.402728C95.8846 0.144866 96.2387 0 96.6079 0C96.9771 0 97.3311 0.144866 97.5922 0.402728C97.8532 0.660591 97.9999 1.01033 97.9999 1.375Z" fill="#283841"/>
</g>
<defs>
<clipPath id="clip0_23_838">
<rect width="98" height="22" fill="white"/>
</clipPath>
</defs>
</svg>
